# xmcd
#
# Track frame offsets:
#	150
#	20810
#	39868
#	59458
#	84760
#	101472
#	119902
#	131230
#	150165
#	172667
#	189913
#	210033
#	261503
#
# Disc length: 3836
#
# Revision: 2
# Processed by: cddbd v1.5.1PL0 Copyright (c) Steve Scherf et al.
# Submitted via: CDex 1.30
# Normalized: r1:TRMNUM
#
DISCID=9f0efa0d
DTITLE=R. Kelly - 12 Play
DYEAR=2001
DGENRE=Blues
TTITLE0=Your Body's Callin'
TTITLE1=Bump N' Grind
TTITLE2=Homie Lover Friend
TTITLE3=It Seems Like Your Ready
TTITLE4=Freak Dat Body
TTITLE5=I Like The Crotch On You
TTITLE6=Intermission
TTITLE7=Summer Bunnies
TTITLE8=For You
TTITLE9=Back To The Hood Of Things
TTITLE10=Sadie
TTITLE11=Sex Me
TTITLE12=12 Play
EXTD=\nYEAR: 2001  ID3G:   0
EXTT0=
EXTT1=
EXTT2=
EXTT3=
EXTT4=
EXTT5=
EXTT6=
EXTT7=
EXTT8=
EXTT9=
EXTT10=
EXTT11=
EXTT12=
PLAYORDER=
